<svg width="91" height="91" viewBox="0 0 91 91" fill="none" xmlns="http://www.w3.org/2000/svg">
<g clip-path="url(#clip0_5437_6410)">
<path d="M68.7241 37.5737H9.00537C5.86425 37.5737 3.31787 40.1201 3.31787 43.2612V85.3128C3.31787 88.4539 5.86425 91.0003 9.00537 91.0003H68.7241C71.8653 91.0003 74.4116 88.4539 74.4116 85.3128V43.2612C74.4116 40.1201 71.8653 37.5737 68.7241 37.5737Z" fill="#27AAE1"/>
<path d="M67.8635 29.0064C67.6902 21.4303 64.5589 14.2228 59.1395 8.92591C53.7201 3.62901 46.4429 0.66333 38.8649 0.66333C31.2868 0.66333 24.0096 3.62901 18.5902 8.92591C13.1708 14.2228 10.0395 21.4303 9.86621 29.0064V37.5812H19.1463V29.0064C19.1463 23.7772 21.2236 18.7622 24.9212 15.0646C28.6188 11.367 33.6338 9.28969 38.863 9.28969C44.0921 9.28969 49.1072 11.367 52.8047 15.0646C56.5023 18.7622 58.5796 23.7772 58.5796 29.0064V37.5812H67.8597L67.8635 29.0064Z" fill="#2196F3"/>
<path d="M86.2604 53.6218H20.5679C19.7826 53.6218 19.146 54.2584 19.146 55.0437V73.5281C19.146 74.3134 19.7826 74.9499 20.5679 74.9499H86.2604C87.0457 74.9499 87.6823 74.3134 87.6823 73.5281V55.0437C87.6823 54.2584 87.0457 53.6218 86.2604 53.6218Z" fill="#1E88E5"/>
<path d="M26.3143 62.7806C25.9308 63.1838 25.7201 63.721 25.7272 64.2775C25.7343 64.8339 25.9586 65.3656 26.3522 65.759C26.7458 66.1523 27.2776 66.3763 27.8341 66.383C28.3905 66.3898 28.9275 66.1787 29.3306 65.795C29.7141 65.3917 29.9247 64.8545 29.9177 64.2981C29.9106 63.7416 29.6863 63.21 29.2927 62.8166C28.899 62.4232 28.3673 62.1993 27.8108 62.1925C27.2544 62.1858 26.7173 62.3968 26.3143 62.7806Z" fill="white"/>
<path d="M48.2983 62.155C47.7327 62.155 47.1902 62.3797 46.7902 62.7797C46.3902 63.1797 46.1655 63.7222 46.1655 64.2878C46.1655 64.8535 46.3902 65.396 46.7902 65.796C47.1902 66.1959 47.7327 66.4207 48.2983 66.4207C48.864 66.4207 49.4065 66.1959 49.8065 65.796C50.2064 65.396 50.4312 64.8535 50.4312 64.2878C50.4312 63.7222 50.2064 63.1797 49.8065 62.7797C49.4065 62.3797 48.864 62.155 48.2983 62.155Z" fill="white"/>
<path d="M38.0591 62.155C37.4934 62.155 36.9509 62.3797 36.551 62.7797C36.151 63.1797 35.9263 63.7222 35.9263 64.2878C35.9263 64.8535 36.151 65.396 36.551 65.796C36.9509 66.1959 37.4934 66.4207 38.0591 66.4207C38.6247 66.4207 39.1672 66.1959 39.5672 65.796C39.9672 65.396 40.1919 64.8535 40.1919 64.2878C40.1919 63.7222 39.9672 63.1797 39.5672 62.7797C39.1672 62.3797 38.6247 62.155 38.0591 62.155Z" fill="white"/>
<path d="M58.5356 62.155C57.97 62.155 57.4275 62.3797 57.0275 62.7797C56.6275 63.1797 56.4028 63.7222 56.4028 64.2878C56.4028 64.8535 56.6275 65.396 57.0275 65.796C57.4275 66.1959 57.97 66.4207 58.5356 66.4207C59.1013 66.4207 59.6438 66.1959 60.0438 65.796C60.4438 65.396 60.6685 64.8535 60.6685 64.2878C60.6685 63.7222 60.4438 63.1797 60.0438 62.7797C59.6438 62.3797 59.1013 62.155 58.5356 62.155Z" fill="white"/>
<path d="M68.7734 62.155C68.2078 62.155 67.6653 62.3797 67.2653 62.7797C66.8653 63.1797 66.6406 63.7222 66.6406 64.2878C66.6406 64.8535 66.8653 65.396 67.2653 65.796C67.6653 66.1959 68.2078 66.4207 68.7734 66.4207C69.3391 66.4207 69.8816 66.1959 70.2816 65.796C70.6815 65.396 70.9062 64.8535 70.9062 64.2878C70.9062 63.7222 70.6815 63.1797 70.2816 62.7797C69.8816 62.3797 69.3391 62.155 68.7734 62.155Z" fill="white"/>
<path d="M80.5181 62.7806C80.1151 62.3968 79.578 62.1858 79.0216 62.1925C78.4651 62.1993 77.9333 62.4232 77.5397 62.8166C77.1461 63.21 76.9218 63.7416 76.9147 64.2981C76.9076 64.8545 77.1183 65.3917 77.5018 65.795C77.9048 66.1787 78.4419 66.3898 78.9983 66.383C79.5548 66.3763 80.0866 66.1523 80.4802 65.759C80.8738 65.3656 81.0981 64.8339 81.1052 64.2775C81.1123 63.721 80.9016 63.1838 80.5181 62.7806Z" fill="white"/>
</g>
<defs>
<clipPath id="clip0_5437_6410">
<rect width="91" height="91" fill="white"/>
</clipPath>
</defs>
</svg>
