<svg width="89" height="28" viewBox="0 0 89 28" fill="none" xmlns="http://www.w3.org/2000/svg">
<path d="M1.98921 12.089V7.32545H0.902527V5.86661H1.98921V1.46033H6.57413C8.01311 1.46033 9.17423 1.91187 10.0575 2.81496C10.9506 3.71805 11.3972 5.01811 11.3972 6.71512C11.3972 8.32282 10.9854 9.62287 10.1617 10.6153C9.33798 11.5978 8.14213 12.089 6.57413 12.089H1.98921ZM4.32633 3.42529V5.86661H6.7081V7.34033H4.32633V10.124H6.41038C7.16461 10.124 7.79479 9.86601 8.30091 9.34996C8.80704 8.83391 9.0601 8.03006 9.0601 6.93841C9.0601 5.79714 8.82193 4.92879 8.34557 4.33334C7.87914 3.72798 7.09514 3.42529 5.99357 3.42529H4.32633Z" fill="#F0F2F5"/>
<path d="M12.9039 4.1696H15.0326V8.94803C15.0326 9.41446 15.0822 9.75188 15.1814 9.96029C15.37 10.3572 15.7421 10.5557 16.2979 10.5557C17.0025 10.5557 17.4888 10.2729 17.7567 9.70722C17.8857 9.4095 17.9502 8.99765 17.9502 8.47168V4.1696H20.0641V5.22651C20.074 5.23643 20.0889 5.2414 20.1087 5.2414C20.4561 5.27117 20.8481 5.17689 21.2847 4.95856L20.6446 3.87188L22.5203 2.78519L23.6367 4.72038L22.0141 5.65821C21.6966 5.84676 21.379 5.9857 21.0614 6.07502C20.724 6.16433 20.3916 6.17922 20.0641 6.11968V12.089H18.0396V10.9725C18.0296 10.9825 18.0048 11.0222 17.9651 11.0916C17.9254 11.1512 17.8758 11.2256 17.8163 11.3149C17.7567 11.3943 17.6922 11.4588 17.6227 11.5084C17.3052 11.7962 16.9926 11.9947 16.6849 12.1039C16.3872 12.213 16.0299 12.2676 15.6131 12.2676C14.4322 12.2676 13.6432 11.8459 13.2462 11.0023C13.018 10.526 12.9039 9.8412 12.9039 8.94803V4.1696Z" fill="#F0F2F5"/>
<path d="M28.4998 12.3718C27.1402 12.3718 26.123 11.96 25.4482 11.1363C24.7833 10.3126 24.4508 9.31522 24.4508 8.14418C24.4508 6.99299 24.7833 6.00555 25.4482 5.18185C26.1131 4.33831 27.1303 3.91653 28.4998 3.91653C29.8693 3.91653 30.8866 4.33334 31.5515 5.16697L31.8492 5.58378C31.869 5.5937 31.9038 5.59866 31.9534 5.59866C32.2908 5.62843 32.6778 5.53416 33.1145 5.31583L32.4744 4.22914L34.3501 3.14246L35.4665 5.09254L33.8588 6.03036C33.5809 6.18914 33.2584 6.32312 32.8912 6.43228C32.7027 6.49183 32.5042 6.5216 32.2958 6.5216C32.4645 7.04758 32.5488 7.58844 32.5488 8.14418C32.5488 9.29537 32.2114 10.2927 31.5366 11.1363C30.8617 11.96 29.8495 12.3718 28.4998 12.3718ZM29.8842 9.99006C30.2117 9.5534 30.3755 8.93811 30.3755 8.14418C30.3755 7.35026 30.2117 6.73993 29.8842 6.31319C29.5667 5.87654 29.1052 5.65821 28.4998 5.65821C27.8945 5.65821 27.428 5.87654 27.1005 6.31319C26.773 6.73993 26.6093 7.35026 26.6093 8.14418C26.6093 8.93811 26.773 9.5534 27.1005 9.99006C27.428 10.4168 27.8945 10.6302 28.4998 10.6302C29.1052 10.6302 29.5667 10.4168 29.8842 9.99006ZM28.7827 0.626709L30.1819 2.80008H28.6785L26.4753 0.626709H28.7827Z" fill="#F0F2F5"/>
<path d="M36.6116 4.39289H38.6212V5.46469H38.6659C39.1819 4.61122 39.9659 4.18448 41.0179 4.18448C42.0797 4.18448 42.8141 4.45243 43.221 4.98833C43.6279 5.52423 43.8313 6.3132 43.8313 7.35522V12.089H41.7175V7.74226C41.7175 7.08727 41.6133 6.61092 41.4049 6.31319C41.2064 6.00555 40.8591 5.85173 40.3629 5.85173C39.7873 5.85173 39.3705 6.0254 39.1124 6.37274C38.8544 6.72008 38.7254 7.28079 38.7254 8.05487V12.089H36.6116V4.39289Z" fill="#F0F2F5"/>
<path d="M49.0232 10.2729C49.5988 10.2729 50.0404 10.0695 50.3481 9.66256C50.6656 9.24575 50.8244 8.73963 50.8244 8.14418C50.8244 7.4495 50.6805 6.88383 50.3927 6.44717C50.1148 6.00059 49.6583 5.7773 49.0232 5.7773C48.4575 5.7773 48.0308 5.9857 47.743 6.40251C47.4552 6.81932 47.3113 7.34033 47.3113 7.96555C47.3113 8.37244 47.3609 8.73963 47.4602 9.06712C47.5594 9.39462 47.743 9.67745 48.0109 9.91563C48.2789 10.1538 48.6163 10.2729 49.0232 10.2729ZM52.834 11.5978C52.834 11.8955 52.8092 12.1734 52.7596 12.4314C52.71 12.6993 52.6008 12.997 52.4321 13.3245C52.2733 13.652 52.055 13.9299 51.7771 14.1582C51.4993 14.3963 51.1073 14.5948 50.6011 14.7536C50.1049 14.9124 49.5194 14.9918 48.8446 14.9918C47.9911 14.9918 47.2269 14.7784 46.5521 14.3517C45.8773 13.9349 45.5101 13.3245 45.4505 12.5207H47.5495C47.7182 13.2253 48.2442 13.5776 49.1274 13.5776C49.703 13.5776 50.1297 13.4039 50.4076 13.0566C50.6954 12.7192 50.8343 12.2627 50.8244 11.6871V10.6748H50.7946C50.5763 11.0718 50.2587 11.3695 49.8419 11.568C49.435 11.7665 48.9835 11.8657 48.4873 11.8657C47.3857 11.8657 46.562 11.5084 46.0162 10.7939C45.4704 10.0695 45.1975 9.13659 45.1975 7.99532C45.1975 6.94337 45.4902 6.04525 46.0758 5.30094C46.6712 4.55664 47.48 4.18448 48.5022 4.18448C49.5541 4.18448 50.3183 4.59633 50.7946 5.42003H50.8244V4.39289H52.834V11.5978Z" fill="#F0F2F5"/>
<path d="M61.2543 3.42529H58.0687V1.46033H66.7771V3.42529H63.5914V12.089H61.2543V3.42529Z" fill="#F0F2F5"/>
<path d="M66.4128 4.39289H68.4224V5.82195H68.4522C68.6507 5.33567 68.9782 4.94367 69.4347 4.64595C69.8912 4.33831 70.3824 4.18448 70.9084 4.18448C71.0374 4.18448 71.1913 4.20929 71.3699 4.25891V6.22388C71.1516 6.17426 70.8985 6.14945 70.6107 6.14945C69.2213 6.14945 68.5266 6.97314 68.5266 8.62054V12.089H66.4128V4.39289Z" fill="#F0F2F5"/>
<path d="M72.3028 4.1696H74.4315V8.94803C74.4315 9.41446 74.4812 9.75188 74.5804 9.96029C74.769 10.3572 75.1411 10.5557 75.6969 10.5557C76.4015 10.5557 76.8877 10.2729 77.1557 9.70722C77.2847 9.4095 77.3492 8.99765 77.3492 8.47168V4.1696H79.463V12.089H77.4385V10.9725C77.4286 10.9825 77.4038 11.0222 77.3641 11.0916C77.3244 11.1512 77.2748 11.2256 77.2152 11.3149C77.1557 11.3943 77.0912 11.4588 77.0217 11.5084C76.7041 11.7962 76.3915 11.9947 76.0839 12.1039C75.7862 12.213 75.4289 12.2676 75.0121 12.2676C73.8311 12.2676 73.0422 11.8459 72.6452 11.0023C72.417 10.526 72.3028 9.8412 72.3028 8.94803V4.1696ZM74.9377 14.6345V12.9226H76.8282V14.6345H74.9377Z" fill="#F0F2F5"/>
<path d="M86.5388 7.10216C86.3999 6.21892 85.8789 5.7773 84.9758 5.7773C84.3605 5.7773 83.904 6.03036 83.6063 6.53649C83.3185 7.03269 83.1746 7.61325 83.1746 8.27816C83.1746 8.93315 83.3135 9.50378 83.5914 9.99006C83.8792 10.4664 84.3257 10.7046 84.9311 10.7046C85.9037 10.7046 86.4644 10.1836 86.6132 9.14155H88.6526C88.5137 10.1538 88.1167 10.9328 87.4617 11.4787C86.8167 12.0146 85.9781 12.2825 84.946 12.2825C83.7849 12.2825 82.8471 11.9203 82.1325 11.1958C81.418 10.4615 81.0607 9.5137 81.0607 8.35259C81.0607 7.12201 81.4081 6.11968 82.1028 5.3456C82.8074 4.57152 83.77 4.18448 84.9907 4.18448C85.9632 4.18448 86.7919 4.43755 87.4766 4.94367C88.1713 5.4498 88.5484 6.1693 88.608 7.10216H86.5388Z" fill="#F0F2F5"/>
<path d="M0.917413 17.7631V18.4106H3.68623V25.7346H4.44542V18.4106H7.22539V17.7631H0.917413Z" fill="#F0F2F5"/>
<path d="M6.81082 19.9737V25.7346H7.51419V22.6643C7.51419 21.4585 8.38502 20.5431 9.65778 20.5989V19.8955C8.61948 19.8508 7.83796 20.3867 7.48069 21.3246H7.45837V19.9737H6.81082Z" fill="#F0F2F5"/>
<path d="M10.2655 21.7377H10.9688C11.0023 20.7998 11.6164 20.3979 12.5095 20.3979C13.3469 20.3979 14.0168 20.6324 14.0168 21.5814C14.0168 22.2177 13.693 22.3071 13.1124 22.3629C11.5941 22.5415 10.0198 22.6085 10.0198 24.2162C10.0198 25.3885 10.8795 25.8909 11.9513 25.8909C13.0678 25.8909 13.5479 25.4778 14.0503 24.7298H14.0726C14.0726 25.3215 14.1842 25.7346 14.8988 25.7346C15.0886 25.7346 15.189 25.7234 15.3565 25.6899V25.0982C15.2895 25.1317 15.2114 25.1429 15.1332 25.1429C14.8541 25.1429 14.7201 24.9977 14.7201 24.7186V21.6595C14.7201 20.1076 13.6148 19.8062 12.5989 19.8062C11.2591 19.8062 10.3548 20.3867 10.2655 21.7377ZM14.0168 22.5862V23.5017C14.0168 24.6293 13.0901 25.3103 12.0071 25.3103C11.3373 25.3103 10.7232 24.8749 10.7232 24.1715C10.7232 23.0551 12.2081 23.0551 13.4027 22.843C13.5925 22.8095 13.9051 22.7536 13.9944 22.5862H14.0168Z" fill="#F0F2F5"/>
<path d="M16.1107 19.9737V25.7346H16.8141V22.374C16.8476 21.2464 17.5063 20.3979 18.6228 20.3979C19.7615 20.3979 20.0853 21.1571 20.0853 22.1396V25.7346H20.7887V22.0279C20.7887 20.6547 20.2974 19.8062 18.6786 19.8062C17.8636 19.8062 17.1044 20.2639 16.8364 20.9673H16.8141V19.9737H16.1107Z" fill="#F0F2F5"/>
<path d="M25.5683 21.6595H26.2717C26.2159 20.4091 25.3227 19.8062 24.1616 19.8062C23.1456 19.8062 21.9957 20.2528 21.9957 21.4251C21.9957 22.3964 22.6879 22.7313 23.6034 22.9658L24.5077 23.1667C25.1441 23.323 25.7693 23.5352 25.7693 24.2162C25.7693 25.02 24.865 25.3103 24.1951 25.3103C23.2573 25.3103 22.5539 24.8191 22.4981 23.8701H21.7947C21.9175 25.288 22.8107 25.8909 24.1616 25.8909C25.2334 25.8909 26.4727 25.4331 26.4727 24.1715C26.4727 23.1667 25.6353 22.6978 24.8315 22.575L23.8937 22.3629C23.4024 22.2401 22.699 22.0056 22.699 21.3916C22.699 20.6435 23.4359 20.3979 24.0611 20.3979C24.865 20.3979 25.5348 20.7887 25.5683 21.6595Z" fill="#F0F2F5"/>
<path d="M27.4936 19.9737V27.8558H28.197V24.6404H28.2193C28.5208 25.4778 29.3693 25.8909 30.2178 25.8909C31.9706 25.8909 32.8079 24.5065 32.8079 22.8541C32.8079 21.2129 31.9706 19.8062 30.2178 19.8062C29.2799 19.8062 28.4873 20.2639 28.1635 21.0678H28.1412V19.9737H27.4936ZM32.1046 22.8541C32.1046 24.0487 31.5575 25.3103 30.2178 25.3103C28.7329 25.3103 28.197 24.0487 28.197 22.8541C28.197 21.5479 28.6547 20.3979 30.2178 20.3979C31.5575 20.3979 32.1046 21.6595 32.1046 22.8541Z" fill="#F0F2F5"/>
<path d="M36.3384 20.3979C37.6781 20.3979 38.3592 21.6372 38.3592 22.8541C38.3592 24.0711 37.6781 25.3103 36.3384 25.3103C34.9986 25.3103 34.3176 24.0711 34.3176 22.8541C34.3176 21.6372 34.9986 20.3979 36.3384 20.3979ZM36.3384 19.8062C34.5856 19.8062 33.6142 21.2018 33.6142 22.8541C33.6142 24.5176 34.5856 25.8909 36.3384 25.8909C38.0912 25.8909 39.0625 24.5176 39.0625 22.8541C39.0625 21.2018 38.0912 19.8062 36.3384 19.8062Z" fill="#F0F2F5"/>
<path d="M40.1083 19.9737V25.7346H40.8116V22.6643C40.8116 21.4585 41.6825 20.5431 42.9552 20.5989V19.8955C41.9169 19.8508 41.1354 20.3867 40.7781 21.3246H40.7558V19.9737H40.1083Z" fill="#F0F2F5"/>
<path d="M44.7464 19.9737V18.2432H44.043V19.9737H43.0382V20.5654H44.043V24.5065C44.0318 25.489 44.3556 25.7904 45.2934 25.7904C45.5055 25.7904 45.7065 25.7681 45.9186 25.7681V25.1763C45.7177 25.1987 45.5167 25.2098 45.3157 25.2098C44.8133 25.1763 44.7464 24.9084 44.7464 24.4507V20.5654H45.9186V19.9737H44.7464Z" fill="#F0F2F5"/>
</svg>
