<svg width="157" height="52" viewBox="0 0 157 52" fill="none" xmlns="http://www.w3.org/2000/svg">
<path d="M9.15209 25V17.32H7.40009V14.968H9.15209V7.864H16.5441C18.8641 7.864 20.7361 8.592 22.1601 10.048C23.6001 11.504 24.3201 13.6 24.3201 16.336C24.3201 18.928 23.6561 21.024 22.3281 22.624C21.0001 24.208 19.0721 25 16.5441 25H9.15209ZM12.9201 11.032V14.968H16.7601V17.344H12.9201V21.832H16.2801C17.4961 21.832 18.5121 21.416 19.3281 20.584C20.1441 19.752 20.5521 18.456 20.5521 16.696C20.5521 14.856 20.1681 13.456 19.4001 12.496C18.6481 11.52 17.3841 11.032 15.6081 11.032H12.9201ZM26.7492 12.232H30.1812V19.936C30.1812 20.688 30.2612 21.232 30.4212 21.568C30.7252 22.208 31.3252 22.528 32.2212 22.528C33.3572 22.528 34.1412 22.072 34.5732 21.16C34.7812 20.68 34.8852 20.016 34.8852 19.168V12.232H38.2932V13.936C38.3092 13.952 38.3332 13.96 38.3652 13.96C38.9252 14.008 39.5572 13.856 40.2612 13.504L39.2292 11.752L42.2532 10L44.0532 13.12L41.4372 14.632C40.9252 14.936 40.4132 15.16 39.9012 15.304C39.3572 15.448 38.8212 15.472 38.2932 15.376V25H35.0292V23.2C35.0132 23.216 34.9732 23.28 34.9092 23.392C34.8452 23.488 34.7652 23.608 34.6692 23.752C34.5732 23.88 34.4692 23.984 34.3572 24.064C33.8452 24.528 33.3412 24.848 32.8452 25.024C32.3652 25.2 31.7892 25.288 31.1172 25.288C29.2132 25.288 27.9412 24.608 27.3012 23.248C26.9332 22.48 26.7492 21.376 26.7492 19.936V12.232ZM51.8937 25.456C49.7017 25.456 48.0617 24.792 46.9737 23.464C45.9017 22.136 45.3657 20.528 45.3657 18.64C45.3657 16.784 45.9017 15.192 46.9737 13.864C48.0457 12.504 49.6857 11.824 51.8937 11.824C54.1017 11.824 55.7417 12.496 56.8137 13.84L57.2937 14.512C57.3257 14.528 57.3817 14.536 57.4617 14.536C58.0057 14.584 58.6297 14.432 59.3337 14.08L58.3017 12.328L61.3257 10.576L63.1257 13.72L60.5337 15.232C60.0857 15.488 59.5657 15.704 58.9737 15.88C58.6697 15.976 58.3497 16.024 58.0137 16.024C58.2857 16.872 58.4217 17.744 58.4217 18.64C58.4217 20.496 57.8777 22.104 56.7897 23.464C55.7017 24.792 54.0697 25.456 51.8937 25.456ZM54.1257 21.616C54.6537 20.912 54.9177 19.92 54.9177 18.64C54.9177 17.36 54.6537 16.376 54.1257 15.688C53.6137 14.984 52.8697 14.632 51.8937 14.632C50.9177 14.632 50.1657 14.984 49.6377 15.688C49.1097 16.376 48.8457 17.36 48.8457 18.64C48.8457 19.92 49.1097 20.912 49.6377 21.616C50.1657 22.304 50.9177 22.648 51.8937 22.648C52.8697 22.648 53.6137 22.304 54.1257 21.616ZM52.3497 6.52L54.6057 10.024H52.1817L48.6297 6.52H52.3497ZM64.9718 12.592H68.2118V14.32H68.2838C69.1158 12.944 70.3798 12.256 72.0758 12.256C73.7878 12.256 74.9718 12.688 75.6278 13.552C76.2838 14.416 76.6118 15.688 76.6118 17.368V25H73.2038V17.992C73.2038 16.936 73.0358 16.168 72.6998 15.688C72.3798 15.192 71.8198 14.944 71.0198 14.944C70.0918 14.944 69.4198 15.224 69.0038 15.784C68.5878 16.344 68.3798 17.248 68.3798 18.496V25H64.9718V12.592ZM84.9823 22.072C85.9103 22.072 86.6223 21.744 87.1183 21.088C87.6303 20.416 87.8863 19.6 87.8863 18.64C87.8863 17.52 87.6543 16.608 87.1903 15.904C86.7423 15.184 86.0063 14.824 84.9823 14.824C84.0703 14.824 83.3823 15.16 82.9183 15.832C82.4543 16.504 82.2223 17.344 82.2223 18.352C82.2223 19.008 82.3023 19.6 82.4623 20.128C82.6223 20.656 82.9183 21.112 83.3503 21.496C83.7823 21.88 84.3263 22.072 84.9823 22.072ZM91.1263 24.208C91.1263 24.688 91.0863 25.136 91.0063 25.552C90.9263 25.984 90.7503 26.464 90.4783 26.992C90.2223 27.52 89.8703 27.968 89.4223 28.336C88.9743 28.72 88.3423 29.04 87.5263 29.296C86.7263 29.552 85.7823 29.68 84.6943 29.68C83.3183 29.68 82.0863 29.336 80.9983 28.648C79.9103 27.976 79.3183 26.992 79.2223 25.696H82.6063C82.8783 26.832 83.7263 27.4 85.1503 27.4C86.0783 27.4 86.7663 27.12 87.2143 26.56C87.6783 26.016 87.9023 25.28 87.8863 24.352V22.72H87.8383C87.4863 23.36 86.9743 23.84 86.3023 24.16C85.6463 24.48 84.9183 24.64 84.1183 24.64C82.3423 24.64 81.0143 24.064 80.1343 22.912C79.2543 21.744 78.8143 20.24 78.8143 18.4C78.8143 16.704 79.2863 15.256 80.2303 14.056C81.1903 12.856 82.4943 12.256 84.1423 12.256C85.8383 12.256 87.0703 12.92 87.8383 14.248H87.8863V12.592H91.1263V24.208ZM104.702 11.032H99.5659V7.864H113.606V11.032H108.47V25H104.702V11.032ZM113.019 12.592H116.259V14.896H116.307C116.627 14.112 117.155 13.48 117.891 13C118.627 12.504 119.419 12.256 120.267 12.256C120.475 12.256 120.723 12.296 121.011 12.376V15.544C120.659 15.464 120.251 15.424 119.787 15.424C117.547 15.424 116.427 16.752 116.427 19.408V25H113.019V12.592ZM122.515 12.232H125.947V19.936C125.947 20.688 126.027 21.232 126.187 21.568C126.491 22.208 127.091 22.528 127.987 22.528C129.123 22.528 129.907 22.072 130.339 21.16C130.547 20.68 130.651 20.016 130.651 19.168V12.232H134.059V25H130.795V23.2C130.779 23.216 130.739 23.28 130.675 23.392C130.611 23.488 130.531 23.608 130.435 23.752C130.339 23.88 130.235 23.984 130.123 24.064C129.611 24.528 129.107 24.848 128.611 25.024C128.131 25.2 127.555 25.288 126.883 25.288C124.979 25.288 123.707 24.608 123.067 23.248C122.699 22.48 122.515 21.376 122.515 19.936V12.232ZM126.763 29.104V26.344H129.811V29.104H126.763ZM145.467 16.96C145.243 15.536 144.403 14.824 142.947 14.824C141.955 14.824 141.219 15.232 140.739 16.048C140.275 16.848 140.043 17.784 140.043 18.856C140.043 19.912 140.267 20.832 140.715 21.616C141.179 22.384 141.899 22.768 142.875 22.768C144.443 22.768 145.347 21.928 145.587 20.248H148.875C148.651 21.88 148.011 23.136 146.955 24.016C145.915 24.88 144.563 25.312 142.899 25.312C141.027 25.312 139.515 24.728 138.363 23.56C137.211 22.376 136.635 20.848 136.635 18.976C136.635 16.992 137.195 15.376 138.315 14.128C139.451 12.88 141.003 12.256 142.971 12.256C144.539 12.256 145.875 12.664 146.979 13.48C148.099 14.296 148.707 15.456 148.803 16.96H145.467Z" fill="#0F5C97"/>
<path d="M41.9094 34.148V35.192H46.3734V47H47.5974V35.192H52.0794V34.148H41.9094ZM51.4111 37.712V47H52.5451V42.05C52.5451 40.106 53.9491 38.63 56.0011 38.72V37.586C54.3271 37.514 53.0671 38.378 52.4911 39.89H52.4551V37.712H51.4111ZM56.9808 40.556H58.1148C58.1688 39.044 59.1588 38.396 60.5988 38.396C61.9488 38.396 63.0288 38.774 63.0288 40.304C63.0288 41.33 62.5068 41.474 61.5708 41.564C59.1228 41.852 56.5848 41.96 56.5848 44.552C56.5848 46.442 57.9708 47.252 59.6988 47.252C61.4988 47.252 62.2728 46.586 63.0828 45.38H63.1188C63.1188 46.334 63.2988 47 64.4508 47C64.7568 47 64.9188 46.982 65.1888 46.928V45.974C65.0808 46.028 64.9548 46.046 64.8288 46.046C64.3788 46.046 64.1628 45.812 64.1628 45.362V40.43C64.1628 37.928 62.3808 37.442 60.7428 37.442C58.5828 37.442 57.1248 38.378 56.9808 40.556ZM63.0288 41.924V43.4C63.0288 45.218 61.5348 46.316 59.7888 46.316C58.7088 46.316 57.7188 45.614 57.7188 44.48C57.7188 42.68 60.1128 42.68 62.0388 42.338C62.3448 42.284 62.8488 42.194 62.9928 41.924H63.0288ZM66.4048 37.712V47H67.5388V41.582C67.5928 39.764 68.6548 38.396 70.4548 38.396C72.2908 38.396 72.8128 39.62 72.8128 41.204V47H73.9468V41.024C73.9468 38.81 73.1548 37.442 70.5448 37.442C69.2308 37.442 68.0068 38.18 67.5748 39.314H67.5388V37.712H66.4048ZM81.6527 40.43H82.7867C82.6967 38.414 81.2567 37.442 79.3847 37.442C77.7467 37.442 75.8927 38.162 75.8927 40.052C75.8927 41.618 77.0087 42.158 78.4847 42.536L79.9427 42.86C80.9687 43.112 81.9767 43.454 81.9767 44.552C81.9767 45.848 80.5187 46.316 79.4387 46.316C77.9267 46.316 76.7927 45.524 76.7027 43.994H75.5687C75.7667 46.28 77.2067 47.252 79.3847 47.252C81.1127 47.252 83.1107 46.514 83.1107 44.48C83.1107 42.86 81.7607 42.104 80.4647 41.906L78.9527 41.564C78.1607 41.366 77.0267 40.988 77.0267 39.998C77.0267 38.792 78.2147 38.396 79.2227 38.396C80.5187 38.396 81.5987 39.026 81.6527 40.43ZM84.7568 37.712V50.42H85.8908V45.236H85.9268C86.4128 46.586 87.7808 47.252 89.1488 47.252C91.9748 47.252 93.3248 45.02 93.3248 42.356C93.3248 39.71 91.9748 37.442 89.1488 37.442C87.6368 37.442 86.3588 38.18 85.8368 39.476H85.8008V37.712H84.7568ZM92.1908 42.356C92.1908 44.282 91.3088 46.316 89.1488 46.316C86.7548 46.316 85.8908 44.282 85.8908 42.356C85.8908 40.25 86.6288 38.396 89.1488 38.396C91.3088 38.396 92.1908 40.43 92.1908 42.356ZM99.0167 38.396C101.177 38.396 102.275 40.394 102.275 42.356C102.275 44.318 101.177 46.316 99.0167 46.316C96.8567 46.316 95.7587 44.318 95.7587 42.356C95.7587 40.394 96.8567 38.396 99.0167 38.396ZM99.0167 37.442C96.1907 37.442 94.6247 39.692 94.6247 42.356C94.6247 45.038 96.1907 47.252 99.0167 47.252C101.843 47.252 103.409 45.038 103.409 42.356C103.409 39.692 101.843 37.442 99.0167 37.442ZM105.095 37.712V47H106.229V42.05C106.229 40.106 107.633 38.63 109.685 38.72V37.586C108.011 37.514 106.751 38.378 106.175 39.89H106.139V37.712H105.095ZM112.572 37.712V34.922H111.438V37.712H109.818V38.666H111.438V45.02C111.42 46.604 111.942 47.09 113.454 47.09C113.796 47.09 114.12 47.054 114.462 47.054V46.1C114.138 46.136 113.814 46.154 113.49 46.154C112.68 46.1 112.572 45.668 112.572 44.93V38.666H114.462V37.712H112.572Z" fill="#001529"/>
</svg>
