<svg width="20" height="20" viewBox="0 0 20 20" fill="none" xmlns="http://www.w3.org/2000/svg">
<path d="M17.0833 6.24999L2.91664 6.24999C2.22613 6.24999 1.66664 5.69051 1.66664 5C1.66664 4.30949 2.22613 3.75 2.91664 3.75L17.0833 3.75C17.7738 3.75 18.3333 4.30949 18.3333 5C18.3333 5.69051 17.7738 6.24999 17.0833 6.24999Z" fill="white"/>
<path d="M2.91664 8.75L17.0833 8.75C17.7738 8.75 18.3333 9.30949 18.3333 10C18.3333 10.6905 17.7738 11.25 17.0833 11.25L2.91664 11.25C2.22613 11.25 1.66664 10.6905 1.66664 10C1.66664 9.30949 2.22613 8.75 2.91664 8.75Z" fill="white"/>
<path d="M2.91664 13.75L17.0833 13.75C17.7738 13.75 18.3333 14.3095 18.3333 15C18.3333 15.6905 17.7738 16.25 17.0833 16.25L2.91664 16.25C2.22613 16.25 1.66664 15.6905 1.66664 15C1.66664 14.3095 2.22613 13.75 2.91664 13.75Z" fill="white"/>
</svg>
